<?xml version="1.0"?>
<svg xmlns="http://www.w3.org/2000/svg" id="Line_stroke_cut_Ex" data-name="Line stroke cut Ex" width="200" height="200" viewBox="0 0 512 512"><g><path d="M440.469,344.953l-45.423-18.7-6.092,14.8,45.423,18.7A21.931,21.931,0,0,1,448,380.091V432H392V408H376v31.335L369.222,480H264V393.586l78.569,14.285a8,8,0,0,0,9.192-9.811L331.6,317.429,375.24,335.4l6.092-14.794-54.551-22.462-12.88-51.52,12.321-10.56A27.969,27.969,0,0,0,336,214.8V192h12a28.032,28.032,0,0,0,28-28V148a28.032,28.032,0,0,0-28-28h-2.694A27.767,27.767,0,0,0,352,101.815V64a48.053,48.053,0,0,0-48-48H224V32h80a32.036,32.036,0,0,1,32,32V85.526l-56.845-15.5a88.06,88.06,0,0,0-46.309,0L176,85.526V64a32.036,32.036,0,0,1,32-32V16a48.055,48.055,0,0,0-48,48v37.815A27.767,27.767,0,0,0,166.694,120H164a28.032,28.032,0,0,0-28,28v16a28.032,28.032,0,0,0,28,28h12v23.158a27.953,27.953,0,0,0,9.868,21.336l12.176,10.348-12.825,51.3L71.531,344.953A37.877,37.877,0,0,0,48,380.091V488a8,8,0,0,0,8,8H456a8,8,0,0,0,8-8V380.091A37.877,37.877,0,0,0,440.469,344.953ZM241.377,378.528l-62.608,11.383,17.074-68.3Zm29.246,0,45.534-56.918,17.074,68.3ZM192,129.533a28.43,28.43,0,0,0,3.367-.7l41.689-11.369a72.076,72.076,0,0,1,37.889,0l41.688,11.369a28.674,28.674,0,0,0,3.367.7V204.9l-61.47-20.49a8.006,8.006,0,0,0-5.06,0L192,204.9ZM360,148v16a12.013,12.013,0,0,1-12,12H336V136h12A12.013,12.013,0,0,1,360,148ZM237.056,85.459a72.076,72.076,0,0,1,37.889,0L336,102.109a12,12,0,0,1-15.154,11.284l-41.687-11.37a88.06,88.06,0,0,0-46.309,0l-41.688,11.37A12,12,0,0,1,176,102.109ZM164,176a12.013,12.013,0,0,1-12-12V148a12.013,12.013,0,0,1,12-12h12v40Zm29.641,45.219L256,200.433l62.178,20.726a12.014,12.014,0,0,1-2.368,2.753l-43.4,37.2A12.008,12.008,0,0,1,264.6,264H247.351a12.023,12.023,0,0,1-7.772-2.855L196.229,224.3A11.993,11.993,0,0,1,193.641,221.219Zm35.578,52.118A28.032,28.032,0,0,0,247.351,280H264.6a28.023,28.023,0,0,0,18.221-6.74l17.5-15L311.278,302.1,256,371.193l-55.278-69.1L211.646,258.4Zm-151.6,86.411L180.4,317.429,160.239,398.06a8,8,0,0,0,9.192,9.811L248,393.586V480H142.778L136,439.335V408H120v24H64V380.091A21.931,21.931,0,0,1,77.623,359.748ZM64,480V448h57.223l5.334,32Zm384,0H385.443l5.334-32H448Z"/><rect x="216" y="144" width="16" height="24"/><rect x="280" y="144" width="16" height="24"/><rect x="304" y="432" width="56" height="16"/></g></svg>
