<?xml version="1.0" standalone="no"?>
<!DOCTYPE svg PUBLIC "-//W3C//DTD SVG 20010904//EN"
 "http://www.w3.org/TR/2001/REC-SVG-20010904/DTD/svg10.dtd">
<svg version="1.0" xmlns="http://www.w3.org/2000/svg"
 width="1200.000000pt" height="1200.000000pt" viewBox="0 0 1200.000000 1200.000000"
 preserveAspectRatio="xMidYMid meet">
<metadata>
Created by potrace 1.16, written by Peter Selinger 2001-2019
</metadata>
<g transform="translate(0.000000,1200.000000) scale(0.100000,-0.100000)"
fill="#000000" stroke="none">
<path d="M3875 10481 c-196 -33 -344 -133 -419 -284 -74 -150 -70 -81 -73
-1259 l-4 -1058 206 0 205 0 0 325 0 325 205 0 205 0 0 -325 0 -325 205 0 206
0 -4 1058 c-3 968 -4 1062 -20 1122 -58 214 -194 353 -396 405 -74 19 -244 27
-316 16z m237 -389 c19 -12 45 -40 58 -64 l25 -43 3 -542 3 -543 -206 0 -206
0 3 543 c3 495 5 545 21 574 23 43 65 81 102 93 50 16 159 6 197 -18z"/>
<path d="M8415 10481 c-254 -42 -413 -190 -472 -438 -17 -72 -18 -138 -18
-888 0 -802 0 -811 22 -887 32 -112 70 -184 135 -254 65 -69 156 -122 258
-150 90 -24 301 -25 389 -1 207 56 332 180 393 392 l23 80 0 830 0 830 -23 80
c-61 211 -188 338 -391 390 -74 19 -244 27 -316 16z m240 -391 c26 -16 46 -40
64 -79 l26 -56 3 -745 c3 -753 0 -834 -34 -905 -36 -76 -147 -114 -251 -86
-50 14 -107 73 -122 128 -7 25 -11 299 -11 819 0 863 -2 839 64 903 43 41 76
51 158 47 47 -2 77 -10 103 -26z"/>
<path d="M9772 10479 c-132 -20 -238 -75 -324 -166 -56 -61 -90 -126 -120
-230 l-23 -78 0 -840 0 -840 23 -78 c32 -110 66 -172 134 -243 107 -112 235
-158 438 -158 267 0 438 93 531 288 66 139 69 173 69 716 l0 480 -290 0 -290
0 0 -185 0 -185 100 0 100 0 0 -289 c0 -320 -4 -349 -62 -409 -53 -54 -165
-69 -243 -33 -48 22 -68 43 -92 96 -17 37 -18 95 -21 795 -3 802 -1 855 43
921 66 101 254 106 328 8 38 -52 47 -100 47 -271 l0 -158 190 0 190 0 0 170
c0 204 -15 291 -69 406 -66 139 -177 228 -336 269 -75 20 -240 27 -323 14z"/>
<path d="M1560 9165 l0 -1285 175 0 175 0 0 972 c0 534 2 969 4 967 3 -3 68
-425 146 -939 77 -514 143 -950 146 -967 l6 -33 168 0 168 0 6 33 c3 17 69
451 146 962 77 512 142 935 144 940 3 6 5 -428 5 -962 l1 -973 190 0 190 0 0
1285 0 1285 -287 -2 -288 -3 -116 -830 c-143 -1024 -142 -1014 -147 -990 -3
11 -62 425 -131 920 l-126 900 -288 3 -287 2 0 -1285z"/>
<path d="M4760 9166 l0 -1286 355 0 c396 0 458 7 575 62 81 39 176 132 213
208 15 30 37 91 49 135 l23 80 0 800 c0 792 0 801 -22 877 -59 206 -156 314
-341 376 -77 26 -77 26 -464 30 l-388 3 0 -1285z m704 900 c38 -16 78 -64 95
-115 8 -24 11 -250 11 -786 0 -813 0 -806 -53 -864 -39 -42 -76 -51 -222 -51
l-135 0 0 915 0 915 135 0 c93 0 146 -4 169 -14z"/>
<path d="M6550 9166 l0 -1286 363 0 c399 0 449 6 566 60 128 60 208 154 258
303 l28 82 0 840 0 840 -28 82 c-60 178 -163 279 -347 339 -48 16 -103 18
-447 22 l-393 3 0 -1285z m724 891 c27 -15 48 -38 65 -72 l26 -49 0 -771 0
-771 -26 -49 c-41 -82 -75 -95 -241 -95 l-138 0 0 915 0 915 138 0 c123 0 141
-3 176 -23z"/>
<path d="M5740 7624 c-271 -41 -534 -148 -762 -310 -111 -79 -317 -287 -401
-404 -82 -116 -195 -341 -236 -471 -65 -208 -75 -281 -75 -539 0 -207 2 -247
22 -340 154 -707 682 -1232 1378 -1370 139 -28 393 -38 530 -21 759 93 1352
639 1511 1390 24 114 27 146 27 341 0 195 -3 227 -27 341 -97 456 -353 844
-727 1098 -225 153 -462 245 -733 285 -130 20 -377 19 -507 0z m590 -604 c0
-25 -17 -82 -45 -149 -24 -59 -67 -182 -95 -273 l-51 -165 27 -69 c15 -38 31
-73 35 -78 5 -5 30 1 60 13 52 23 90 24 162 6 16 -4 38 -3 50 3 43 20 57 21
99 5 75 -27 193 -43 234 -30 27 8 40 8 56 -2 17 -11 25 -9 57 13 39 28 62 32
90 17 13 -8 44 5 132 56 154 88 211 113 264 113 36 0 48 -5 61 -25 9 -13 14
-29 12 -36 -2 -6 -51 -25 -108 -43 -58 -17 -135 -48 -172 -69 -79 -44 -199
-137 -247 -192 -30 -35 -33 -43 -29 -89 4 -50 56 -196 101 -286 13 -27 39 -56
65 -73 34 -23 42 -34 42 -58 0 -37 46 -82 107 -105 46 -18 62 -46 42 -70 -20
-25 -74 -10 -132 34 -70 53 -149 92 -175 85 -14 -3 -41 9 -85 41 -70 50 -206
118 -220 109 -5 -3 2 -17 16 -32 34 -35 40 -62 27 -111 -17 -64 -4 -97 66
-170 65 -67 84 -101 84 -149 0 -15 11 -42 25 -61 19 -25 22 -37 14 -47 -16
-19 -43 -16 -64 7 -10 11 -26 22 -35 25 -10 3 -21 17 -24 30 -4 14 -20 32 -36
40 -17 9 -30 20 -30 24 0 30 -117 131 -151 131 -10 0 -30 11 -45 25 -49 46
-132 46 -279 1 -82 -25 -102 -27 -225 -25 -118 3 -139 1 -163 -16 -28 -18 -28
-18 -53 8 -25 27 -32 27 -84 0 -14 -7 -30 -13 -37 -13 -24 0 -172 -122 -283
-234 -90 -91 -121 -116 -142 -116 -27 0 -58 22 -58 42 0 22 35 66 69 88 28 17
40 33 49 64 6 24 37 74 75 121 36 44 61 81 57 83 -14 5 -112 -48 -160 -87 -25
-19 -92 -79 -150 -132 -113 -103 -204 -169 -233 -169 -9 0 -22 11 -29 25 -10
22 -6 30 47 87 58 62 255 319 255 331 0 4 -82 7 -182 7 -101 0 -227 3 -281 7
-119 7 -118 7 -143 143 -19 108 -23 359 -6 402 9 22 21 28 69 38 32 7 130 30
217 51 88 21 168 39 178 39 10 0 18 3 18 8 5 106 9 123 34 166 46 79 158 125
237 97 24 -8 35 -8 47 1 8 7 83 99 167 203 141 177 196 234 252 264 34 17 36
14 30 -39 -4 -32 -31 -102 -72 -189 -36 -77 -68 -154 -72 -172 l-6 -32 39 6
c30 5 47 16 74 48 19 24 105 113 191 199 85 86 186 193 223 238 73 88 89 101
124 102 19 0 22 -5 22 -40z"/>
<path d="M5186 6319 c-25 -19 -26 -23 -12 -38 21 -23 20 -38 -4 -51 -29 -15
-26 -48 5 -56 67 -17 155 38 155 96 0 61 -90 91 -144 49z"/>
<path d="M5618 6301 c-42 -27 -78 -65 -78 -83 0 -5 13 -8 28 -8 32 0 52 -16
52 -41 0 -34 -54 -39 -88 -7 l-23 23 3 -44 c2 -34 9 -49 29 -63 90 -67 225 3
237 122 5 55 -8 84 -46 104 -54 27 -67 27 -114 -3z"/>
<path d="M1350 7571 c-5 -11 -10 -22 -10 -25 0 -3 739 -6 1643 -6 l1642 0 30
25 30 24 -1662 1 c-1633 0 -1662 0 -1673 -19z"/>
<path d="M7343 7565 l28 -25 1645 0 c904 0 1644 3 1644 6 0 3 -5 14 -10 25
-11 19 -40 19 -1673 19 l-1662 -1 28 -24z"/>
<path d="M1270 7450 c-11 -20 -8 -20 1613 -20 1611 0 1624 0 1642 20 18 20 17
20 -1613 20 -1621 0 -1631 0 -1642 -20z"/>
<path d="M7475 7450 c18 -20 31 -20 1642 -20 1621 0 1624 0 1613 20 -11 20
-21 20 -1642 20 -1630 0 -1631 0 -1613 -20z"/>
<path d="M917 6925 l-137 -205 1401 0 1401 0 -6 -22 c-37 -127 -88 -346 -102
-443 -23 -146 -26 -552 -6 -680 30 -187 80 -400 117 -497 7 -17 -59 -18 -1286
-18 l-1294 0 295 -157 c162 -86 337 -179 388 -207 l93 -51 44 -131 c363 -1095
1156 -2015 2185 -2539 376 -191 816 -337 1228 -409 285 -50 414 -60 762 -60
348 0 477 10 762 60 1584 276 2905 1418 3413 2948 l44 131 93 51 c51 28 226
121 388 207 l295 157 -1294 0 c-1227 0 -1293 1 -1286 18 37 97 87 307 117 497
20 127 17 533 -6 680 -14 97 -65 316 -102 443 l-6 22 1401 0 1401 0 -137 205
-136 205 -1598 0 -1598 0 61 -96 c360 -573 427 -1286 181 -1914 -197 -503
-598 -932 -1088 -1161 -565 -265 -1245 -265 -1810 0 -224 105 -424 248 -610
435 -390 393 -603 882 -622 1431 -15 428 97 846 325 1209 l61 96 -1598 0
-1598 0 -136 -205z m2907 -2357 c122 -203 342 -458 536 -620 469 -393 1031
-598 1640 -598 604 0 1151 197 1625 585 196 161 426 425 551 633 l49 82 777 0
c690 0 778 -2 778 -15 0 -25 -82 -239 -144 -376 -558 -1235 -1727 -2116 -3061
-2308 -413 -59 -867 -52 -1275 19 -1281 226 -2397 1097 -2936 2289 -62 137
-144 351 -144 376 0 13 88 15 778 15 l777 0 49 -82z"/>
<path d="M3056 4268 c32 -62 127 -213 197 -312 99 -140 202 -263 340 -403 94
-95 123 -120 134 -112 7 7 13 14 13 18 0 3 -48 55 -106 115 -189 196 -342 392
-475 611 -55 91 -71 111 -93 113 l-27 3 17 -33z"/>
<path d="M3201 4263 c131 -218 297 -436 477 -623 106 -111 111 -114 126 -95
14 19 10 26 -88 125 -172 176 -308 347 -422 534 -52 84 -62 95 -87 96 l-29 0
23 -37z"/>
<path d="M8706 4204 c-116 -189 -246 -353 -425 -537 -110 -112 -114 -118 -98
-135 17 -16 24 -11 134 103 182 189 349 406 482 628 l23 37 -29 0 c-25 -1 -35
-12 -87 -96z"/>
<path d="M8877 4249 c-54 -96 -204 -314 -287 -419 -46 -58 -141 -164 -212
-236 -70 -72 -128 -135 -128 -141 0 -6 6 -16 13 -22 11 -8 37 13 123 102 226
232 377 430 537 705 l36 62 -27 0 c-22 0 -32 -9 -55 -51z"/>
<path d="M3940 3360 c-91 -126 -165 -233 -165 -239 0 -10 108 -91 122 -91 4 0
33 36 63 80 30 44 60 79 66 80 7 0 7 -30 -2 -97 -21 -154 -23 -144 55 -201
l69 -50 5 36 c4 21 9 78 13 128 l7 92 56 -5 c78 -6 126 23 164 96 34 68 34 93
1 159 -21 43 -43 65 -132 130 -59 43 -118 86 -132 95 l-25 16 -165 -229z m266
-10 c35 -25 44 -37 44 -60 0 -31 -30 -70 -53 -70 -13 0 -107 58 -107 66 0 6
63 94 68 94 2 0 23 -14 48 -30z"/>
<path d="M7791 3509 c-70 -21 -159 -97 -182 -156 -27 -72 1 -154 70 -200 43
-29 93 -30 189 -3 39 11 82 20 95 20 47 0 62 -43 27 -75 -18 -17 -25 -17 -55
-6 -34 12 -37 11 -100 -35 -64 -45 -66 -47 -48 -66 86 -95 297 -39 362 95 52
107 -4 222 -118 243 -21 4 -65 -1 -118 -15 -114 -29 -141 -28 -149 4 -4 15 -1
32 6 40 15 18 51 20 67 4 9 -9 28 0 77 35 36 26 66 50 66 55 0 15 -48 52 -81
61 -40 12 -63 11 -108 -1z"/>
<path d="M4594 3117 c-96 -231 -104 -253 -104 -311 0 -75 18 -113 74 -163 110
-97 262 -97 354 -1 22 23 57 92 108 213 41 98 73 179 71 181 -2 2 -35 17 -74
33 l-70 29 -69 -165 c-89 -213 -118 -242 -195 -190 -52 35 -50 62 22 234 33
81 65 157 69 169 7 19 1 24 -65 52 l-74 30 -47 -111z"/>
<path d="M7203 3159 c-208 -40 -304 -223 -216 -412 89 -189 284 -233 458 -102
43 32 83 111 90 176 9 83 0 88 -87 52 -49 -21 -74 -37 -76 -50 -9 -54 -64
-103 -117 -103 -66 0 -126 70 -133 154 -5 62 7 90 51 116 39 24 78 25 119 4
29 -15 34 -15 97 12 36 15 70 30 74 34 14 12 -43 70 -92 94 -56 28 -111 36
-168 25z"/>
<path d="M6582 2965 c-30 -7 -55 -15 -57 -17 -2 -1 23 -129 56 -283 32 -154
59 -281 59 -281 0 -1 35 6 78 15 56 12 76 21 75 31 -2 16 -99 488 -108 528 -6
25 -22 27 -103 7z"/>
<path d="M5389 2960 c-89 -16 -139 -75 -139 -165 0 -81 32 -118 171 -198 49
-28 63 -48 54 -78 -14 -43 -90 -25 -97 23 -3 20 -12 24 -73 35 -97 16 -95 17
-95 -17 0 -105 113 -193 250 -193 120 -1 190 64 190 176 0 64 -29 101 -130
165 -96 61 -117 89 -86 120 15 15 19 15 44 2 15 -9 28 -25 30 -36 3 -18 14
-23 72 -33 106 -17 103 -18 97 35 -5 52 -29 89 -77 122 -52 35 -146 54 -211
42z"/>
<path d="M6081 2909 c-113 -5 -206 -11 -209 -13 -2 -3 -1 -33 3 -67 l7 -62 73
6 72 7 7 -62 c3 -33 6 -100 6 -148 0 -48 3 -121 6 -163 l7 -77 79 0 79 0 -6
163 c-3 89 -8 190 -10 223 l-5 61 46 7 c26 3 62 6 81 6 l34 0 -3 63 c-4 74 25
68 -267 56z"/>
<path d="M9711 6205 c-64 -131 -79 -155 -100 -159 -14 -3 -91 -15 -169 -27
l-144 -22 123 -123 122 -122 -26 -163 c-15 -89 -25 -164 -23 -167 3 -2 71 32
153 76 l148 80 153 -80 c83 -44 152 -76 152 -71 0 5 -13 80 -29 168 l-30 160
122 122 c66 67 119 124 117 126 -3 2 -79 14 -170 26 -91 13 -166 23 -166 24
-1 1 -36 71 -78 155 -42 83 -77 152 -79 151 -1 0 -35 -70 -76 -154z"/>
<path d="M2130 6200 c-68 -137 -77 -150 -105 -155 -16 -3 -91 -14 -165 -26
-74 -11 -135 -21 -137 -23 -1 -1 52 -56 118 -122 l121 -119 -27 -163 c-15 -90
-25 -166 -22 -168 2 -2 71 31 152 75 l148 79 154 -80 154 -80 -6 33 c-3 19
-17 95 -30 169 l-24 135 122 122 c80 81 116 124 106 127 -12 4 -305 46 -319
46 -3 0 -39 68 -80 150 -41 83 -77 150 -80 150 -3 0 -39 -67 -80 -150z"/>
</g>
</svg>
